<?xml version="1.0" encoding="utf-8"?>
<!-- Generator: Adobe Illustrator 21.0.1, SVG Export Plug-In . SVG Version: 6.00 Build 0)  -->
<svg version="1.1" id="Capa_1" xmlns="http://www.w3.org/2000/svg" xmlns:xlink="http://www.w3.org/1999/xlink" x="0px" y="0px"
	 viewBox="0 0 88.1 88.3" style="enable-background:new 0 0 88.1 88.3;" xml:space="preserve">
<style type="text/css">
	.st0{fill:#ECF0F1;}
	.st1{fill:#363E4B;}
	.st2{fill:#556080;}
	.st3{fill:#2C4055;}
	.st4{fill:#2BDA72;}
	.st5{fill:#F7E6A1;}
	.st6{fill:#E4C05C;}
	.st7{fill:#212F3F;}
	.st8{fill:#ED7161;}
	.st9{fill:#FFFFFF;}
</style>
<circle class="st0" cx="44.1" cy="44.1" r="44.1"/>
<g>
	<rect x="18.1" y="53" class="st1" width="51.9" height="12.5"/>
	<rect x="18.1" y="19" class="st2" width="51.9" height="34"/>
	<path class="st3" d="M68.2,20.8v30.4H19.9V20.8H68.2 M70.1,19h-52v34H70L70.1,19L70.1,19z"/>
	<path class="st4" d="M40.5,50.3C40.5,50.3,40.4,50.3,40.5,50.3c-0.4,0-0.7-0.2-0.9-0.6L35,38.3l-3.6,7.9c-0.2,0.3-0.5,0.5-0.8,0.5
		h-7.1c-0.5,0-0.9-0.4-0.9-0.9s0.4-0.9,0.9-0.9h6.6l4.2-9.3c0.2-0.3,0.5-0.5,0.9-0.5c0.3,0,0.7,0.2,0.8,0.6l4.7,11.7l3.6-6.4
		c0.2-0.3,0.5-0.5,0.7-0.5s0.6,0.2,0.8,0.5l1.5,2.6l3.1-14.8c0.1-0.4,0.5-0.7,0.9-0.7l0,0c0.5,0,0.8,0.3,0.9,0.7l2.6,16.2h10
		c0.5,0,0.9,0.4,0.9,0.9s-0.4,0.9-0.9,0.9H53.9c-0.5,0-0.8-0.3-0.9-0.7l-1.9-12.2l-2.6,12.3c-0.1,0.3-0.3,0.6-0.7,0.7
		c-0.3,0.1-0.7-0.1-0.9-0.4L45,43.2l-3.7,6.7C41.1,50.2,40.8,50.3,40.5,50.3z"/>
	<rect x="50.3" y="55.7" class="st2" width="12.5" height="7.2"/>
	<rect x="50.3" y="55.7" class="st5" width="4.5" height="7.2"/>
	<path class="st6" d="M27,59.3c0-0.5,0.4-0.9,0.9-0.9h3.5c-0.4-1.5-1.8-2.7-3.5-2.7c-2,0-3.6,1.6-3.6,3.6c0,2,1.6,3.6,3.6,3.6
		c1.7,0,3.1-1.1,3.5-2.7h-3.5C27.5,60.2,27,59.8,27,59.3z"/>
	<path class="st5" d="M31.4,58.4h-3.5c-0.5,0-0.9,0.4-0.9,0.9c0,0.5,0.4,0.9,0.9,0.9h3.5c0.1-0.3,0.1-0.6,0.1-0.9
		C31.5,58.9,31.5,58.7,31.4,58.4z"/>
	<path class="st6" d="M43,56.8c-0.5-0.5-1-0.7-1.7-0.9v3.5c0,0.5-0.4,0.9-0.9,0.9c-0.5,0-0.9-0.4-0.9-0.9v-3.5
		c-0.6,0.2-1.2,0.5-1.7,0.9c-1.4,1.4-1.4,3.6,0,5.1s3.6,1.4,5.1,0S44.4,58.1,43,56.8z"/>
	<path class="st5" d="M40.5,60.2c0.5,0,0.9-0.4,0.9-0.9v-3.5c-0.6-0.2-1.2-0.2-1.8,0v3.5C39.6,59.8,40,60.2,40.5,60.2z"/>
	<rect x="19.9" y="65.6" class="st7" width="5.4" height="3.6"/>
	<rect x="62.9" y="65.6" class="st7" width="5.4" height="3.6"/>
	<path class="st8" d="M28.8,24.7c0.5-1.1,1.7-2.2,3-2.2c1.8,0,3.1,1.5,3.3,3.2c0,0,0.1,0.5-0.1,1.2c-0.3,1.1-0.9,2-1.7,2.7L29,33.5
		c-0.1,0.1-0.1,0.1-0.1,0l-4.3-3.7C23.7,29,23,28.1,22.8,27c-0.2-0.8-0.1-1.2-0.1-1.2c0.2-1.8,1.5-3.2,3.3-3.2
		C27.2,22.6,28.3,23.6,28.8,24.7z"/>
	<path class="st9" d="M65.6,24.3H62c-0.5,0-0.9-0.4-0.9-0.9s0.4-0.9,0.9-0.9h3.6c0.5,0,0.9,0.4,0.9,0.9
		C66.5,23.9,66.1,24.3,65.6,24.3z"/>
	<path class="st9" d="M66.5,27.9h-7.2c-0.5,0-0.9-0.4-0.9-0.9c0-0.5,0.4-0.9,0.9-0.9h7.2c0.5,0,0.9,0.4,0.9,0.9
		C67.3,27.5,66.9,27.9,66.5,27.9z"/>
	<path class="st9" d="M65.6,31.5H62c-0.5,0-0.9-0.4-0.9-0.9c0-0.5,0.4-0.9,0.9-0.9h3.6c0.5,0,0.9,0.4,0.9,0.9
		C66.5,31.1,66.1,31.5,65.6,31.5z"/>
</g>
<circle class="st0" cx="44.1" cy="44.2" r="44.1"/>
<g>
	<rect x="18.1" y="53.2" class="st1" width="51.9" height="12.5"/>
	<rect x="18.1" y="19.2" class="st2" width="51.9" height="34"/>
	<path class="st3" d="M68.2,20.9v30.4H19.9V20.9H68.2 M70.1,19.2h-52v34H70L70.1,19.2L70.1,19.2z"/>
	<path class="st4" d="M40.5,50.5C40.5,50.5,40.4,50.5,40.5,50.5c-0.4,0-0.7-0.2-0.9-0.6L35,38.5l-3.6,7.9c-0.2,0.3-0.5,0.5-0.8,0.5
		h-7.1c-0.5,0-0.9-0.4-0.9-0.9c0-0.5,0.4-0.9,0.9-0.9h6.6l4.2-9.3c0.2-0.3,0.5-0.5,0.9-0.5c0.3,0,0.7,0.2,0.8,0.6l4.7,11.7l3.6-6.4
		c0.2-0.3,0.5-0.5,0.7-0.5s0.6,0.2,0.8,0.5l1.5,2.6l3.1-14.8c0.1-0.4,0.5-0.7,0.9-0.7l0,0c0.5,0,0.8,0.3,0.9,0.7l2.6,16.2h10
		c0.5,0,0.9,0.4,0.9,0.9c0,0.5-0.4,0.9-0.9,0.9H53.9c-0.5,0-0.8-0.3-0.9-0.7L51.1,34l-2.6,12.3c-0.1,0.3-0.3,0.6-0.7,0.7
		c-0.3,0.1-0.7-0.1-0.9-0.4L45,43.3L41.3,50C41.1,50.3,40.8,50.5,40.5,50.5z"/>
	<rect x="50.3" y="55.9" class="st2" width="12.5" height="7.2"/>
	<rect x="50.3" y="55.9" class="st5" width="4.5" height="7.2"/>
	<path class="st6" d="M27,59.5c0-0.5,0.4-0.9,0.9-0.9h3.5c-0.4-1.5-1.8-2.7-3.5-2.7c-2,0-3.6,1.6-3.6,3.6s1.6,3.6,3.6,3.6
		c1.7,0,3.1-1.1,3.5-2.7h-3.5C27.5,60.3,27,59.9,27,59.5z"/>
	<path class="st5" d="M31.4,58.5h-3.5c-0.5,0-0.9,0.4-0.9,0.9s0.4,0.9,0.9,0.9h3.5c0.1-0.3,0.1-0.6,0.1-0.9S31.5,58.8,31.4,58.5z"/>
	<path class="st6" d="M43,56.9c-0.5-0.5-1-0.7-1.7-0.9v3.5c0,0.5-0.4,0.9-0.9,0.9c-0.5,0-0.9-0.4-0.9-0.9V56
		c-0.6,0.2-1.2,0.5-1.7,0.9c-1.4,1.4-1.4,3.6,0,5.1s3.6,1.4,5.1,0C44.4,60.6,44.4,58.3,43,56.9z"/>
	<path class="st5" d="M40.5,60.3c0.5,0,0.9-0.4,0.9-0.9v-3.5c-0.6-0.2-1.2-0.2-1.8,0v3.5C39.6,59.9,40,60.3,40.5,60.3z"/>
	<rect x="19.9" y="65.7" class="st7" width="5.4" height="3.6"/>
	<rect x="62.9" y="65.7" class="st7" width="5.4" height="3.6"/>
	<path class="st8" d="M28.8,24.9c0.5-1.1,1.7-2.2,3-2.2c1.8,0,3.1,1.5,3.3,3.2c0,0,0.1,0.5-0.1,1.2c-0.3,1.1-0.9,2-1.7,2.7l-4.4,3.7
		c-0.1,0.1-0.1,0.1-0.1,0l-4.3-3.7c-0.9-0.7-1.5-1.7-1.7-2.7c-0.2-0.8-0.1-1.2-0.1-1.2c0.2-1.8,1.5-3.2,3.3-3.2
		C27.2,22.7,28.3,23.8,28.8,24.9z"/>
	<path class="st9" d="M65.6,24.5H62c-0.5,0-0.9-0.4-0.9-0.9s0.4-0.9,0.9-0.9h3.6c0.5,0,0.9,0.4,0.9,0.9
		C66.5,24.1,66.1,24.5,65.6,24.5z"/>
	<path class="st9" d="M66.5,28.1h-7.2c-0.5,0-0.9-0.4-0.9-0.9c0-0.5,0.4-0.9,0.9-0.9h7.2c0.5,0,0.9,0.4,0.9,0.9
		C67.4,27.7,66.9,28.1,66.5,28.1z"/>
	<path class="st9" d="M65.6,31.7H62c-0.5,0-0.9-0.4-0.9-0.9s0.4-0.9,0.9-0.9h3.6c0.5,0,0.9,0.4,0.9,0.9
		C66.5,31.3,66.1,31.7,65.6,31.7z"/>
</g>
</svg>
